# xmcd CD database file
#
# Track frame offsets:
#	150
#	20850
#	44250
#	67875
#	90825
#	111525
#
# Disc length: 1794 seconds
#
# Revision: 1
# Processed by: cddbd v1.5.1PL0 Copyright (c) Steve Scherf et al.
# Submitted via: CDex 1.51
#
DISCID=48070006
DTITLE=中原涼 - Squall
DYEAR=2005
DGENRE=JPop
TTITLE0=Squall
TTITLE1=ネオンテトラ
TTITLE2=未完成の城 -Dead Line Mix-
TTITLE3=Energy field -Piano Version-
TTITLE4=Squall -Off Vocal Version-
TTITLE5=ネオンテトラ -Off Vocal Version-
EXTD=YEAR: 2005
EXTT0=
EXTT1=
EXTT2=
EXTT3=
EXTT4=
EXTT5=
PLAYORDER=
